<mxfile host="app.diagrams.net" modified="2022-07-12T10:01:16.626Z" agent="5.0 (Windows NT 10.0; WOW64) AppleWebKit/537.36 (KHTML, like Gecko) Chrome/102.0.5005.132 Safari/537.36" etag="4X851AxhkEXlKveTfTYK" version="20.0.4" type="github">
  <diagram id="C5RBs43oDa-KdzZeNtuy" name="Page-1">
    <mxGraphModel dx="672" dy="384" grid="1" gridSize="10" guides="1" tooltips="1" connect="1" arrows="1" fold="1" page="1" pageScale="1" pageWidth="827" pageHeight="1169" math="0" shadow="0">
      <root>
        <mxCell id="WIyWlLk6GJQsqaUBKTNV-0" />
        <mxCell id="WIyWlLk6GJQsqaUBKTNV-1" parent="WIyWlLk6GJQsqaUBKTNV-0" />
        <mxCell id="0_zBpcaksDeCwq3W3Ob7-1" value="StartGame" style="swimlane;fontStyle=1;align=center;verticalAlign=top;childLayout=stackLayout;horizontal=1;startSize=26;horizontalStack=0;resizeParent=1;resizeParentMax=0;resizeLast=0;collapsible=1;marginBottom=0;" vertex="1" parent="WIyWlLk6GJQsqaUBKTNV-1">
          <mxGeometry x="350" y="280" width="160" height="86" as="geometry" />
        </mxCell>
        <mxCell id="0_zBpcaksDeCwq3W3Ob7-2" value="+ field: type" style="text;strokeColor=none;fillColor=none;align=left;verticalAlign=top;spacingLeft=4;spacingRight=4;overflow=hidden;rotatable=0;points=[[0,0.5],[1,0.5]];portConstraint=eastwest;" vertex="1" parent="0_zBpcaksDeCwq3W3Ob7-1">
          <mxGeometry y="26" width="160" height="26" as="geometry" />
        </mxCell>
        <mxCell id="0_zBpcaksDeCwq3W3Ob7-3" value="" style="line;strokeWidth=1;fillColor=none;align=left;verticalAlign=middle;spacingTop=-1;spacingLeft=3;spacingRight=3;rotatable=0;labelPosition=right;points=[];portConstraint=eastwest;" vertex="1" parent="0_zBpcaksDeCwq3W3Ob7-1">
          <mxGeometry y="52" width="160" height="8" as="geometry" />
        </mxCell>
        <mxCell id="0_zBpcaksDeCwq3W3Ob7-4" value="+ method(type): type" style="text;strokeColor=none;fillColor=none;align=left;verticalAlign=top;spacingLeft=4;spacingRight=4;overflow=hidden;rotatable=0;points=[[0,0.5],[1,0.5]];portConstraint=eastwest;" vertex="1" parent="0_zBpcaksDeCwq3W3Ob7-1">
          <mxGeometry y="60" width="160" height="26" as="geometry" />
        </mxCell>
        <mxCell id="0_zBpcaksDeCwq3W3Ob7-15" value="StartMenu" style="swimlane;fontStyle=1;align=center;verticalAlign=top;childLayout=stackLayout;horizontal=1;startSize=26;horizontalStack=0;resizeParent=1;resizeParentMax=0;resizeLast=0;collapsible=1;marginBottom=0;" vertex="1" parent="WIyWlLk6GJQsqaUBKTNV-1">
          <mxGeometry x="350" y="10" width="160" height="164" as="geometry" />
        </mxCell>
        <mxCell id="0_zBpcaksDeCwq3W3Ob7-23" value="- contentPane : JPanel&#xa;- play: JButton&#xa;- highScore: JButton&#xa;- btnDifficult: JButton&#xa;- exit: JButton&#xa;- btnMusicOnOff: JButton&#xa;- lblNewLabel: JLabel" style="text;strokeColor=none;fillColor=none;align=left;verticalAlign=top;spacingLeft=4;spacingRight=4;overflow=hidden;rotatable=0;points=[[0,0.5],[1,0.5]];portConstraint=eastwest;" vertex="1" parent="0_zBpcaksDeCwq3W3Ob7-15">
          <mxGeometry y="26" width="160" height="104" as="geometry" />
        </mxCell>
        <mxCell id="0_zBpcaksDeCwq3W3Ob7-17" value="" style="line;strokeWidth=1;fillColor=none;align=left;verticalAlign=middle;spacingTop=-1;spacingLeft=3;spacingRight=3;rotatable=0;labelPosition=right;points=[];portConstraint=eastwest;" vertex="1" parent="0_zBpcaksDeCwq3W3Ob7-15">
          <mxGeometry y="130" width="160" height="8" as="geometry" />
        </mxCell>
        <mxCell id="0_zBpcaksDeCwq3W3Ob7-18" value="+ StartMenu()" style="text;strokeColor=none;fillColor=none;align=left;verticalAlign=top;spacingLeft=4;spacingRight=4;overflow=hidden;rotatable=0;points=[[0,0.5],[1,0.5]];portConstraint=eastwest;" vertex="1" parent="0_zBpcaksDeCwq3W3Ob7-15">
          <mxGeometry y="138" width="160" height="26" as="geometry" />
        </mxCell>
        <mxCell id="0_zBpcaksDeCwq3W3Ob7-22" value="" style="endArrow=diamondThin;endFill=0;endSize=24;html=1;rounded=0;" edge="1" parent="WIyWlLk6GJQsqaUBKTNV-1" source="0_zBpcaksDeCwq3W3Ob7-18" target="0_zBpcaksDeCwq3W3Ob7-1">
          <mxGeometry width="160" relative="1" as="geometry">
            <mxPoint x="350" y="250" as="sourcePoint" />
            <mxPoint x="510" y="250" as="targetPoint" />
          </mxGeometry>
        </mxCell>
        <mxCell id="0_zBpcaksDeCwq3W3Ob7-24" value="" style="endArrow=diamondThin;endFill=0;endSize=24;html=1;rounded=0;entryX=0.006;entryY=0.432;entryDx=0;entryDy=0;entryPerimeter=0;exitX=1;exitY=0.5;exitDx=0;exitDy=0;" edge="1" parent="WIyWlLk6GJQsqaUBKTNV-1" source="0_zBpcaksDeCwq3W3Ob7-26" target="0_zBpcaksDeCwq3W3Ob7-23">
          <mxGeometry width="160" relative="1" as="geometry">
            <mxPoint x="190" y="80" as="sourcePoint" />
            <mxPoint x="330" y="80" as="targetPoint" />
          </mxGeometry>
        </mxCell>
        <mxCell id="0_zBpcaksDeCwq3W3Ob7-25" value="HighScore" style="swimlane;fontStyle=1;align=center;verticalAlign=top;childLayout=stackLayout;horizontal=1;startSize=26;horizontalStack=0;resizeParent=1;resizeParentMax=0;resizeLast=0;collapsible=1;marginBottom=0;" vertex="1" parent="WIyWlLk6GJQsqaUBKTNV-1">
          <mxGeometry x="10" width="160" height="278" as="geometry" />
        </mxCell>
        <mxCell id="0_zBpcaksDeCwq3W3Ob7-26" value="- contentPane: JPanel&#xa;- btnMainMenu: btnReset&#xa;- btnDifficult: JButton&#xa;- difficult : boolean&#xa;- list : ArrayList&lt;Integer&gt;&#xa;- listLabel: ArrayList&lt;JLabel&gt;&#xa;- lblDifficult: JLabel&#xa;- label1: JLabel&#xa;- label2: JLabel&#xa;- label3: JLabel&#xa;- label4: JLabel&#xa;- label5: JLabel" style="text;strokeColor=none;fillColor=none;align=left;verticalAlign=top;spacingLeft=4;spacingRight=4;overflow=hidden;rotatable=0;points=[[0,0.5],[1,0.5]];portConstraint=eastwest;" vertex="1" parent="0_zBpcaksDeCwq3W3Ob7-25">
          <mxGeometry y="26" width="160" height="174" as="geometry" />
        </mxCell>
        <mxCell id="0_zBpcaksDeCwq3W3Ob7-27" value="" style="line;strokeWidth=1;fillColor=none;align=left;verticalAlign=middle;spacingTop=-1;spacingLeft=3;spacingRight=3;rotatable=0;labelPosition=right;points=[];portConstraint=eastwest;" vertex="1" parent="0_zBpcaksDeCwq3W3Ob7-25">
          <mxGeometry y="200" width="160" height="8" as="geometry" />
        </mxCell>
        <mxCell id="0_zBpcaksDeCwq3W3Ob7-28" value="+ HighScore()&#xa;- readEasyFile(): void&#xa;- readHardFile(): void&#xa;- paintElement(): void" style="text;strokeColor=none;fillColor=none;align=left;verticalAlign=top;spacingLeft=4;spacingRight=4;overflow=hidden;rotatable=0;points=[[0,0.5],[1,0.5]];portConstraint=eastwest;" vertex="1" parent="0_zBpcaksDeCwq3W3Ob7-25">
          <mxGeometry y="208" width="160" height="70" as="geometry" />
        </mxCell>
      </root>
    </mxGraphModel>
  </diagram>
</mxfile>
